<?xml version="1.0" encoding="UTF-8"?>
<svg width="15px" height="13px" viewBox="0 0 15 13" version="1.1" xmlns="http://www.w3.org/2000/svg" xmlns:xlink="http://www.w3.org/1999/xlink">
    <title>icon/comment new</title>
    <g id="Live-Apps" stroke="none" stroke-width="1" fill="none" fill-rule="evenodd">
        <g id="Add-Salesforce-Cards" transform="translate(-1430.000000, -269.000000)" fill="#FFAE00">
            <g id="Group" transform="translate(1429.500000, 267.000000)">
                <g id="IconCommentNew24" transform="translate(1.333333, 2.000000)">
                    <path d="M11.9573333,9.64733333 C11.6985425,9.95708038 11.595863,10.3682897 11.6786667,10.7633333 C11.759452,11.2234766 11.9143531,11.6674663 12.1373333,12.078 C12.2040708,12.1786656 12.211134,12.3075567 12.1557962,12.4149121 C12.1004584,12.5222675 11.9913775,12.5912905 11.8706667,12.5953333 L11.8206667,12.5913333 C11.0006883,12.4835387 10.2049478,12.2373776 9.46733333,11.8633333 C9.28364966,11.7662118 9.07911207,11.7151918 8.87133333,11.7146667 C8.7657337,11.7144316 8.66057774,11.7283329 8.55866667,11.756 C7.94174167,11.9222655 7.30560379,12.0065459 6.66666667,12.0066667 C2.98466667,12.0066667 0,9.31933333 0,6.00666667 C0,2.694 2.98466667,0 6.66666667,0 C10.3486667,0 13.3333333,2.68666667 13.3333333,6 C13.3269402,7.34145719 12.8385859,8.63592729 11.9573333,9.64733333 L11.9573333,9.64733333 Z M6.66666667,1.33333333 C3.726,1.33333333 1.33333333,3.428 1.33333333,6 C1.33333333,8.572 3.726,10.6666667 6.66666667,10.6666667 C7.18745831,10.6663078 7.70592835,10.5972681 8.20866667,10.4613333 C8.4237311,10.403848 8.64538537,10.3747124 8.868,10.3746667 C9.29230274,10.375469 9.7100593,10.4793362 10.0853333,10.6773333 C10.168,10.7206667 10.252,10.7613333 10.3353333,10.7993333 C10.2452161,10.0695922 10.4650147,9.33547957 10.9413333,8.77533333 C11.6157067,8.00900551 11.9915276,7.02543405 12,6.00466667 C12,3.43 9.60733333,1.33333333 6.66666667,1.33333333 L6.66666667,1.33333333 Z M9.16666667,6.66666667 L7.33333333,6.66666667 L7.33333333,8.5 C7.33333333,8.59204746 7.25871412,8.66666667 7.16666667,8.66666667 L6.16666667,8.66666667 C6.07461921,8.66666667 6,8.59204746 6,8.5 L6,6.66666667 L4.16666667,6.66666667 C4.07461921,6.66666667 4,6.59204746 4,6.5 L4,5.5 C4,5.40795254 4.07461921,5.33333333 4.16666667,5.33333333 L6,5.33333333 L6,3.5 C6,3.40795254 6.07461921,3.33333333 6.16666667,3.33333333 L7.16666667,3.33333333 C7.25871412,3.33333333 7.33333333,3.40795254 7.33333333,3.5 L7.33333333,5.33333333 L9.16666667,5.33333333 C9.25871412,5.33333333 9.33333333,5.40795254 9.33333333,5.5 L9.33333333,6.5 C9.33333333,6.59204746 9.25871412,6.66666667 9.16666667,6.66666667 Z" id="Shape"></path>
                </g>
            </g>
        </g>
    </g>
</svg>