<?xml version="1.0" encoding="UTF-8"?>
<svg width="15px" height="15px" viewBox="0 0 15 15" version="1.1" xmlns="http://www.w3.org/2000/svg" xmlns:xlink="http://www.w3.org/1999/xlink">
    <title>icon/comment new</title>
    <g id="Live-Apps" stroke="none" stroke-width="1" fill="none" fill-rule="evenodd">
        <g id="Add-Salesforce-Cards" transform="translate(-1431.000000, -269.000000)" fill="#FFAE00">
            <g id="Group" transform="translate(1429.500000, 267.000000)">
                <g id="IconCommentNew24" transform="translate(1.500000, 2.250000)">
                    <path d="M13.452,10.85325 C13.1608603,11.2017154 13.0453458,11.6643259 13.1385,12.10875 C13.2293835,12.6264112 13.4036472,13.1258996 13.6545,13.58775 C13.7295796,13.7009988 13.7375258,13.8460013 13.6752707,13.9667761 C13.6130157,14.087551 13.4902997,14.1652018 13.3545,14.16975 L13.29825,14.16525 C12.3757743,14.0439811 11.4805663,13.7670498 10.65075,13.34625 C10.4441059,13.2369883 10.2140011,13.1795908 9.98025,13.179 C9.86145041,13.1787356 9.74314996,13.1943745 9.6285,13.2255 C8.93445938,13.4125487 8.21880427,13.5073641 7.5,13.5075 C3.35775,13.5075 0,10.48425 0,6.7575 C0,3.03075 3.35775,0 7.5,0 C11.64225,0 15,3.0225 15,6.75 C14.9928077,8.25913934 14.4434091,9.7154182 13.452,10.85325 L13.452,10.85325 Z M7.5,1.5 C4.19175,1.5 1.5,3.8565 1.5,6.75 C1.5,9.6435 4.19175,12 7.5,12 C8.0858906,11.9995962 8.6691694,11.9219266 9.23475,11.769 C9.47669748,11.704329 9.72605855,11.6715515 9.9765,11.6715 C10.4538406,11.6724027 10.9238167,11.7892532 11.346,12.012 C11.439,12.06075 11.5335,12.1065 11.62725,12.14925 C11.5258682,11.3282912 11.7731415,10.5024145 12.309,9.87225 C13.0676701,9.0101312 13.4904686,7.90361331 13.5,6.75525 C13.5,3.85875 10.80825,1.5 7.5,1.5 L7.5,1.5 Z M10.3125,7.5 L8.25,7.5 L8.25,9.5625 C8.25,9.66605339 8.16605339,9.75 8.0625,9.75 L6.9375,9.75 C6.83394661,9.75 6.75,9.66605339 6.75,9.5625 L6.75,7.5 L4.6875,7.5 C4.58394661,7.5 4.5,7.41605339 4.5,7.3125 L4.5,6.1875 C4.5,6.08394661 4.58394661,6 4.6875,6 L6.75,6 L6.75,3.9375 C6.75,3.83394661 6.83394661,3.75 6.9375,3.75 L8.0625,3.75 C8.16605339,3.75 8.25,3.83394661 8.25,3.9375 L8.25,6 L10.3125,6 C10.4160534,6 10.5,6.08394661 10.5,6.1875 L10.5,7.3125 C10.5,7.41605339 10.4160534,7.5 10.3125,7.5 Z" id="Shape"></path>
                </g>
            </g>
        </g>
    </g>
</svg>